<svg width="186" height="75" viewBox="0 0 186 75" fill="none" xmlns="http://www.w3.org/2000/svg">
<mask id="mask0_511_2124" style="mask-type:alpha" maskUnits="userSpaceOnUse" x="0" y="0" width="186" height="75">
<path d="M22.8725 0.0362528C22.6775 0.0694528 22.4565 0.124953 22.3835 0.180353C22.3225 0.224653 22.0415 0.324453 21.7845 0.401953C21.1115 0.601553 20.3045 1.31085 20.0485 1.93155C19.9255 2.21975 19.7795 2.51905 19.7055 2.60775C19.6075 2.71855 19.5715 4.72475 19.5715 9.03635C19.5715 14.9774 19.5595 15.3321 19.3385 15.8087C19.0455 16.4183 18.1405 17.2718 17.5535 17.4824C17.2115 17.6043 15.6955 17.6486 10.0825 17.693C5.32654 17.7262 2.97853 17.7927 2.86853 17.8703C2.77053 17.9368 2.44055 18.0698 2.12255 18.1807C1.43855 18.4134 0.655535 19.145 0.435535 19.7546C0.349535 19.9873 0.215536 20.2534 0.142536 20.342C-0.0414645 20.5526 -0.0534645 32.9998 0.142536 33.2215C0.215536 33.3101 0.362546 33.6095 0.484546 33.8977C0.728546 34.5073 1.57255 35.2388 2.24555 35.4383C2.50155 35.5048 2.74654 35.6046 2.81954 35.66C2.96654 35.793 16.8565 35.793 17.0035 35.66C17.0765 35.6157 17.3825 35.4826 17.6885 35.3717C18.2265 35.1944 19.3875 34.2524 19.3875 33.9863C19.3875 33.9198 19.4975 33.6648 19.6325 33.3988C19.8645 32.9554 19.8765 32.6452 19.9015 26.671C19.9385 20.5637 19.9505 20.3975 20.1945 19.9098C20.5255 19.2669 21.2465 18.6129 21.9555 18.3137L22.5055 18.0809H39.1965H52.2145L52.7285 17.826C53.0095 17.693 53.3035 17.5821 53.3765 17.5821C53.6575 17.5821 54.7215 16.5181 54.9295 16.0304C55.0395 15.7533 55.1735 15.4873 55.2345 15.4208C55.2835 15.3654 55.3325 12.55 55.3325 9.15835V3.00675L55.0395 2.28625C54.6725 1.38845 54.1585 0.823153 53.4135 0.512853C53.0955 0.379853 52.7165 0.213553 52.5815 0.147053C52.3985 0.0473526 51.9615 0.0140524 39.6245 0.00295241C30.6125 -0.00814759 23.0805 0.0140528 22.8725 0.0362528Z" fill="#9F9F9F"/>
<path d="M7.81755 46.5845C7.85055 46.3886 7.90554 46.1682 7.96154 46.0947C8.00554 46.0335 8.10555 45.7518 8.18255 45.4947C8.38155 44.8212 9.09054 44.013 9.70954 43.7558C9.99754 43.6334 10.2966 43.4864 10.3856 43.413C10.4956 43.315 12.4985 43.2783 16.8045 43.2783C22.7365 43.2783 23.0906 43.266 23.5666 43.0456C24.1756 42.7517 25.0275 41.8455 25.2375 41.2577C25.3595 40.9149 25.4036 39.3964 25.4476 33.7757C25.4816 29.0122 25.5475 26.6611 25.6255 26.5509C25.6915 26.4529 25.8246 26.1223 25.9346 25.8039C26.1676 25.1182 26.8975 24.3344 27.5065 24.114C27.7385 24.0283 28.0045 23.8936 28.0935 23.8201C28.3035 23.6365 40.7325 23.6242 40.9535 23.8201C41.0425 23.8936 41.3406 24.0406 41.6286 24.163C42.2376 24.4079 42.9676 25.2529 43.1676 25.9264C43.2336 26.1835 43.3335 26.4284 43.3885 26.5019C43.5215 26.6488 43.5215 40.5597 43.3885 40.7067C43.3445 40.7802 43.2116 41.0863 43.1006 41.3924C42.9236 41.9312 41.9826 43.0946 41.7176 43.0946C41.6506 43.0946 41.3966 43.2048 41.1306 43.3395C40.6876 43.5721 40.3785 43.5844 34.4125 43.6089C28.3145 43.6456 28.1485 43.6579 27.6615 43.9028C27.0195 44.2334 26.3665 44.9559 26.0675 45.6661L25.8356 46.2172V62.9323L25.9346 71.07L25.6806 71.5843C25.5476 71.8659 25.4366 72.1598 25.4366 72.2333C25.4366 72.5149 24.3746 73.5798 23.8876 73.7888C23.6106 73.8988 23.3455 74.0338 23.2785 74.0948C23.2235 74.1438 20.4126 74.1928 17.0256 74.1928H10.8835L10.1636 73.8988C9.26755 73.5318 8.70254 73.0168 8.39254 72.27C8.26054 71.9516 8.09455 71.572 8.02755 71.4373C7.92855 71.2536 7.79554 75.7168 7.78454 63.3609C7.77354 54.3359 7.79555 46.7927 7.81755 46.5845Z" fill="#9F9F9F"/>
<path d="M67.7076 73.3431V35.2629C67.7076 31.6362 68.6015 28.8588 70.3885 26.9307C72.2225 24.9567 74.9726 23.9697 78.6396 23.9697C79.8316 23.9697 81.0915 24.1763 82.4205 24.5894C83.7955 24.9567 85.1026 25.4617 86.3396 26.1044L83.5206 31.8199C82.6506 31.4067 81.8705 31.1083 81.1835 30.9247C80.5415 30.741 79.9686 30.6492 79.4646 30.6492C78.0896 30.6492 77.0576 31.1083 76.3706 32.0265C75.7286 32.8987 75.4075 34.3448 75.4075 36.3647V73.3431H67.7076ZM61.7946 45.2479V38.9126H84.4146V45.2479H61.7946Z" fill="#9F9F9F"/>
<path d="M103.117 74.1697C99.6785 74.1697 96.6075 73.4117 93.9025 71.8968C91.2445 70.336 89.1585 68.2013 87.6465 65.4927C86.1335 62.7842 85.3775 59.6625 85.3775 56.1276C85.3775 52.5927 86.1105 49.471 87.5775 46.7624C89.0905 44.0539 91.1755 41.9421 93.8345 40.4272C96.4925 38.8663 99.5405 38.0859 102.979 38.0859C106.417 38.0859 109.465 38.8663 112.124 40.4272C114.782 41.9421 116.845 44.0539 118.312 46.7624C119.824 49.471 120.58 52.5927 120.58 56.1276C120.58 59.6625 119.847 62.7842 118.38 65.4927C116.914 68.2013 114.851 70.336 112.192 71.8968C109.534 73.4117 106.509 74.1697 103.117 74.1697ZM103.117 67.0765C104.996 67.0765 106.669 66.6175 108.136 65.6993C109.603 64.7352 110.748 63.4498 111.574 61.8431C112.399 60.1904 112.811 58.2852 112.811 56.1276C112.811 53.9699 112.376 52.0877 111.505 50.4809C110.68 48.8282 109.534 47.5428 108.067 46.6247C106.6 45.6606 104.904 45.1786 102.979 45.1786C101.054 45.1786 99.3575 45.6377 97.8905 46.5558C96.4235 47.474 95.2785 48.7594 94.4525 50.4121C93.6275 52.0647 93.2155 53.9699 93.2155 56.1276C93.2155 58.2852 93.6275 60.1904 94.4525 61.8431C95.3235 63.4498 96.4925 64.7352 97.9595 65.6993C99.4725 66.6175 101.191 67.0765 103.117 67.0765Z" fill="#9F9F9F"/>
<path d="M124.503 73.3424V25.1396H132.204V73.3424H124.503Z" fill="#9F9F9F"/>
<path d="M138.483 73.3428V38.9123H146.115V73.3428H138.483ZM142.333 32.3705C141.096 32.3705 140.019 31.9343 139.102 31.0621C138.231 30.1439 137.796 29.0651 137.796 27.8256C137.796 26.5861 138.231 25.5302 139.102 24.658C140.019 23.7857 141.096 23.3496 142.333 23.3496C143.571 23.3496 144.625 23.7857 145.496 24.658C146.413 25.5302 146.871 26.5861 146.871 27.8256C146.871 29.0651 146.413 30.1439 145.496 31.0621C144.625 31.9343 143.571 32.3705 142.333 32.3705Z" fill="#9F9F9F"/>
<path d="M168.254 74.1697C164.816 74.1697 161.745 73.4117 159.041 71.8968C156.382 70.336 154.297 68.2013 152.784 65.4927C151.272 62.7842 150.515 59.6625 150.515 56.1276C150.515 52.5927 151.249 49.471 152.715 46.7624C154.228 44.0539 156.314 41.9421 158.972 40.4272C161.631 38.8663 164.679 38.0859 168.117 38.0859C171.554 38.0859 174.603 38.8663 177.261 40.4272C179.92 41.9421 181.982 44.0539 183.449 46.7624C184.962 49.471 185.718 52.5927 185.718 56.1276C185.718 59.6625 184.985 62.7842 183.518 65.4927C182.051 68.2013 179.988 70.336 177.33 71.8968C174.671 73.4117 171.646 74.1697 168.254 74.1697ZM168.254 67.0765C170.133 67.0765 171.806 66.6175 173.273 65.6993C174.74 64.7352 175.886 63.4498 176.711 61.8431C177.536 60.1904 177.949 58.2852 177.949 56.1276C177.949 53.9699 177.513 52.0877 176.642 50.4809C175.817 48.8282 174.671 47.5428 173.204 46.6247C171.738 45.6606 170.042 45.1786 168.117 45.1786C166.191 45.1786 164.496 45.6377 163.029 46.5558C161.562 47.474 160.416 48.7594 159.591 50.4121C158.766 52.0647 158.353 53.9699 158.353 56.1276C158.353 58.2852 158.766 60.1904 159.591 61.8431C160.462 63.4498 161.631 64.7352 163.097 65.6993C164.61 66.6175 166.329 67.0765 168.254 67.0765Z" fill="#9F9F9F"/>
</mask>
<g mask="url(#mask0_511_2124)">
<path d="M314.669 -74.3311H-129.703V148.252H314.669V-74.3311Z" fill="#9F9F9F"/>
</g>
</svg>
